<?xml version="1.0" encoding="UTF-8" standalone="no"?>
<!-- Generator: Adobe Illustrator 15.1.0, SVG Export Plug-In . SVG Version: 6.00 Build 0)  -->

<svg
   xmlns:dc="http://purl.org/dc/elements/1.1/"
   xmlns:cc="http://creativecommons.org/ns#"
   xmlns:rdf="http://www.w3.org/1999/02/22-rdf-syntax-ns#"
   xmlns:svg="http://www.w3.org/2000/svg"
   xmlns="http://www.w3.org/2000/svg"
   xmlns:sodipodi="http://sodipodi.sourceforge.net/DTD/sodipodi-0.dtd"
   xmlns:inkscape="http://www.inkscape.org/namespaces/inkscape"
   version="1.1"
   id="Calque_1"
   x="0px"
   y="0px"
   width="329.829px"
   height="164.546px"
   viewBox="0 0 329.829 164.546"
   enable-background="new 0 0 329.829 164.546"
   xml:space="preserve"
   inkscape:version="0.48.2 r9819"
   sodipodi:docname="Logo_RER_A.svg"><metadata
   id="metadata12"><rdf:RDF><cc:Work
       rdf:about=""><dc:format>image/svg+xml</dc:format><dc:type
         rdf:resource="http://purl.org/dc/dcmitype/StillImage" /></cc:Work></rdf:RDF></metadata><defs
   id="defs10">
	
	
	
</defs><sodipodi:namedview
   pagecolor="#ffffff"
   bordercolor="#666666"
   borderopacity="1"
   objecttolerance="10"
   gridtolerance="10"
   guidetolerance="10"
   inkscape:pageopacity="0"
   inkscape:pageshadow="2"
   inkscape:window-width="2012"
   inkscape:window-height="1052"
   id="namedview8"
   showgrid="false"
   inkscape:zoom="1.2733871"
   inkscape:cx="12.564915"
   inkscape:cy="82.273003"
   inkscape:window-x="0"
   inkscape:window-y="0"
   inkscape:window-maximized="0"
   inkscape:current-layer="Calque_1" />

<g
   id="g3765"><path
     d="M164.519,82.682C164.519,37.023,126.263,0,82.468,0C37.022,0,0,37.023,0,82.682  c0,45.037,37.022,81.864,82.468,81.864C127.914,164.546,164.519,128.13,164.519,82.682 M153.207,82.682  c0,38.67-31.881,70.551-70.739,70.551c-39.075,0-71.163-31.681-71.163-70.551c0-39.276,32.087-71.574,71.163-71.574  C121.326,11.107,153.207,43.605,153.207,82.682z M141.284,69.517c0-11.103-8.229-16.245-16.251-16.245h-15.417  c-2.882,0-4.535,2.265-4.535,4.73v48.33c0,2.888,2.887,4.329,5.558,4.329c3.077,0,5.547-1.441,5.547-4.329V87.618h4.729  l9.269,20.784c0.813,1.635,2.255,2.259,3.901,2.259c3.293,0,8.018-3.082,6.176-6.793l-8.852-18.51  C136.75,82.682,141.284,77.952,141.284,69.517z M99.533,105.313c0-2.475-1.647-5.143-4.518-5.143H79.379V85.976h12.959  c2.876,0,4.519-2.469,4.519-4.729c0-2.465-1.642-4.735-4.519-4.735H79.379V63.55h14.405c2.871,0,4.518-2.877,4.518-5.136  c0-2.465-1.641-5.142-4.518-5.142H72.804c-2.882,0-4.523,2.265-4.523,4.73v48.13c0,2.883,2.876,4.319,5.553,4.319h21.182  C97.886,110.451,99.533,107.579,99.533,105.313z M61.688,69.517c0-11.103-8.224-16.245-16.236-16.245H30.028  c-2.881,0-4.518,2.265-4.518,4.73v48.33c0,2.888,2.871,4.329,5.542,4.329c3.093,0,5.553-1.441,5.553-4.329V87.618h4.735  l9.253,20.784c0.823,1.635,2.264,2.259,3.905,2.259c3.289,0,8.024-3.082,6.166-6.793l-8.836-18.51  C57.18,82.682,61.688,77.952,61.688,69.517z M129.772,70.757c0,6.995-6.381,8.636-10.288,8.636h-3.299V62.732h3.912  C125.244,62.732,129.772,64.997,129.772,70.757z M50.18,70.757c0,6.995-6.381,8.636-10.281,8.636h-3.294V62.732h3.911  C45.657,62.732,50.18,64.997,50.18,70.757z"
     fill="#164B9C"
     id="path7487" /><g
     id="g3760"><path
       style="fill:#d35e3c;fill-opacity:1"
       inkscape:connector-curvature="0"
       d="M 329.83025,82.264752 C 329.80694,36.86001 293.00319,0.07012832 247.61176,0.05459205 202.21313,0.04404958 165.43046,36.86001 165.40382,82.264752 c 0.01,45.425828 36.78212,82.184638 82.1913,82.232358 45.40807,-0.0166 82.22403,-36.80653 82.23513,-82.232358"
       id="path7491" /><path
       style="fill:#ffffff"
       inkscape:connector-curvature="0"
       d="m 318.27071,82.264752 c 0,-39.038201 -31.65459,-70.663384 -70.69834,-70.712767 -39.04209,0.01554 -70.7111,31.674566 -70.70001,70.674481 -0.0322,39.097574 31.65792,70.729414 70.70001,70.761594 39.02599,5.6e-4 70.69834,-31.66347 70.69834,-70.723308"
       id="path7493" /><path
       style="fill:#d35e3c;fill-opacity:1"
       inkscape:connector-curvature="0"
       d="m 209.52849,117.57037 18.56528,-0.0166 4.93388,-14.93757 h 29.08611 l 4.89281,14.93757 17.13595,0.0166 -27.82989,-78.764997 h -18.82996 l -27.95418,78.764997 m 27.73002,-27.925891 8.14766,-25.107718 c 1.09475,-3.365267 1.9892,-7.42911 1.9892,-9.882731 l 0.25856,-0.02108 c -0.01,2.675567 0.95937,6.766045 1.99309,9.942102 l 8.08385,25.042244 -20.47236,0.02719 z"
       id="path7495" /></g></g>
</svg>